<svg xmlns="http://www.w3.org/2000/svg" width="160" height="56.59" viewBox="0 0 160 56.59">
  <path id="Path_1" data-name="Path 1" d="M-901.859,1169.152c-7.75,0-9.39-8.882-9.39-16.282s1.64-16.28,9.4-16.286,9.389,8.878,9.389,16.276-1.64,16.3-9.4,16.291m.011-44.053c-12.207-.023-22.92,5.535-26.716,17.668h-.6v-15.581l-18.52.012v28.515c0,7.011-1.893,10.221-7.366,10.226-5.768,0-7.346-3.455-7.346-10.221V1127.2h-18.314l-.011,26.556c0,1.051.122,1.922.175,2.9l-.47.139-12.036-29.584H-1011.4l-22.16,54.485h20.5l10.579-33.143h.507l10.585,33.143h20.485l-3.868-9.524.326-.155c4.242,3.638,10.667,5.092,19.468,5.092,15.33,0,23.194-4.545,25.219-16.4h.524c3.122,13.725,14.438,19.929,27.373,19.925,15.213.01,28.291-8.455,28.306-27.763s-13.084-27.761-28.3-27.761" transform="translate(1033.558 -1125.099)" fill="#005087"/>
</svg>
